<svg id="id" fill="none" xmlns="http://www.w3.org/2000/svg">
<path d="M10 19.375C4.82125 19.375 0.625 15.1788 0.625 10C0.625 4.82125 4.82125 0.625 10 0.625C15.1788 0.625 19.375 4.82125 19.375 10C19.375 15.1788 15.1788 19.375 10 19.375ZM1.81469 7.79219C1.61731 8.51152 1.51735 9.25408 1.5175 10C1.5175 14.2019 4.66187 17.7447 8.70062 18.3813C8.96312 18.3034 9.29875 18.3034 9.55375 18.3034C9.46469 17.7681 9.46469 17.3219 9.46469 16.7856C9.46469 16.7856 7.41156 15.2678 7.41156 14.3753C7.41156 13.9975 7.45844 13.7003 7.49406 13.4819C7.54094 13.1847 7.56531 13.0356 7.41063 13.0356C7.25125 13.0356 7.07875 13.0825 6.92031 13.1247C6.63719 13.1997 6.39625 13.2653 6.33906 13.0356C6.16094 12.5003 5.80375 12.0541 5.2675 11.875C3.92875 11.875 3.83969 10.2681 3.83969 8.75031C3.83969 8.45406 3.60438 8.35469 3.34188 8.24312C3.20215 8.19022 3.06932 8.12065 2.94625 8.03594C2.90219 8.08 2.87969 8.1025 2.87969 8.125C2.87969 8.1475 2.90219 8.17 2.94625 8.21406C2.67813 8.66125 2.05375 8.66125 1.69656 8.30406C1.73081 8.1323 1.77021 7.96159 1.81469 7.79219ZM12.0128 18.2359C14.8628 17.5281 17.17 15.3569 18.0728 12.5828C18.0607 12.6148 18.0482 12.6467 18.0353 12.6784C17.3209 13.75 16.2503 13.9291 16.5175 13.2147C16.2503 12.6784 15.8931 12.2322 15.4459 11.7859C14.6425 11.0716 13.9291 9.73281 16.4284 7.85781C15.9822 6.69625 17.3219 5.62562 17.8572 7.05344C17.8572 7.14344 17.9463 7.14344 17.9463 7.14344C18.0662 7.5025 18.1863 7.8625 18.2791 8.16719C17.4972 4.69375 14.5497 1.98719 10.96 1.57281C12.0587 2.08094 12.0231 3.28563 10.9825 3.12531C10.9825 3.57156 10.9825 4.10687 10.8925 4.64313C10.8391 5.18313 10.4256 5.29844 10.0487 5.40344C9.80219 5.47281 9.57063 5.5375 9.46469 5.71469C9.19656 6.16094 10 6.60719 10.8925 6.42906C11.0378 6.42906 11.0256 6.35031 11.0125 6.26406C11.0013 6.19094 10.99 6.11219 11.0716 6.07188C11.4278 5.98187 11.875 5.98187 12.2322 6.07188C11.8693 6.87336 11.4518 7.64894 10.9825 8.39313C10.8616 8.57406 10.9038 8.87687 10.9441 9.16469C10.9628 9.30344 10.9816 9.4375 10.9816 9.55375C10.9816 11.4784 10.3366 10.315 9.90719 9.53969C9.73844 9.23688 9.60344 8.99312 9.55375 9.0175C9.445 9.12625 9.10563 9.03625 8.77563 8.95C8.56281 8.89375 8.35375 8.83937 8.21406 8.83937C8.03594 8.83937 7.99094 9.0175 7.94688 9.19563C7.90188 9.37469 7.85687 9.55375 7.67875 9.55375C7.35063 9.55375 7.21188 9.51625 7.15563 9.50125C7.13688 9.49562 7.1275 9.49375 7.12375 9.49656C7.12187 9.49938 7.12375 9.50594 7.12656 9.51813C7.13781 9.55871 7.14317 9.6007 7.1425 9.64281C7.1425 9.77406 7.15469 9.95219 7.17062 10.1791C7.19594 10.5709 7.2325 11.1072 7.2325 11.7859C7.2325 12.0053 7.5025 11.9209 7.81469 11.8234C8.00969 11.7625 8.22156 11.6969 8.39313 11.6969C8.75875 11.6969 9.04187 11.905 9.29781 12.0944C9.41687 12.1816 9.52938 12.265 9.64281 12.3213C9.95219 12.4544 10.2616 12.7394 10.5484 13.0056C10.8428 13.2756 11.1137 13.5269 11.3397 13.5719C11.5487 13.6131 11.5816 13.7931 11.6116 13.9619C11.6472 14.1541 11.68 14.3331 11.9641 14.2853C12.2322 14.1962 12.5894 14.3753 12.7675 14.6434C13.0356 14.9997 12.8575 15.4469 12.5003 15.7141C11.9641 16.2503 11.7859 16.8747 11.5178 18.1253C11.7494 18.0475 11.9144 18.1038 12.0128 18.2359ZM18.4816 9.92406C18.4806 10.1687 18.4722 10.4134 18.4563 10.6553C18.4754 10.412 18.4838 10.1681 18.4816 9.92406Z" fill="currentColor"/>
</svg>
