<svg xmlns="http://www.w3.org/2000/svg" version="1.1" xmlns:xlink="http://www.w3.org/1999/xlink" width="548" height="145"><svg width="548" height="145" viewBox="0 0 548 145" fill="none" xmlns="http://www.w3.org/2000/svg">
<path d="M81.2795 12H0V30.0767H30.7063V106.206H50.7269V30.1536H81.2904V12H81.2795Z" fill="#3F50EC"></path>
<path d="M147.064 98.4519C146.779 95.7283 146.636 92.9278 146.636 90.2042V55.5553C146.636 47.3736 143.913 40.916 138.597 36.4682C133.293 32.0204 125.682 29.791 115.93 29.791C107.968 29.791 101.082 31.3725 95.4151 34.4585C89.6714 37.6104 85.1577 42.4974 82.4341 48.4498L82.2144 48.8781L97.5676 59.9262L97.7872 59.1355C98.7866 55.0501 100.796 51.8873 103.74 49.8116C106.749 47.736 110.625 46.5828 115.293 46.5828C119.521 46.5828 122.893 47.4394 125.265 49.0978C127.637 50.822 128.713 53.1173 128.713 56.346V57.0599L111.065 59.7835C100.73 61.4308 92.8452 64.374 87.6726 68.6132C85.1577 70.6229 83.1479 73.1379 81.7202 76.0701C80.3585 78.9365 79.7105 82.1652 79.7874 85.394C79.7874 92.214 82.2254 97.738 86.9588 101.9C91.769 106.063 97.93 107.995 105.541 107.995C110.131 108.072 114.722 107.139 118.961 105.272C122.761 103.482 126.132 100.824 128.867 97.6721C128.944 99.3195 129.087 100.758 129.229 101.977C129.372 103.416 129.658 104.778 130.02 106.139L130.163 106.502H148.668L148.525 105.854C147.734 103.273 147.372 100.901 147.086 98.4629L147.064 98.4519ZM109.044 91.8516C105.815 91.8516 103.234 91.1377 101.367 89.8418C100.511 89.2707 99.786 88.4031 99.2918 87.4697C98.7866 86.5362 98.578 85.4599 98.6439 84.3836C98.6439 81.726 99.9398 79.7162 102.586 78.2116C105.244 76.7071 110.043 75.3453 116.644 74.1921L128.691 72.2593V72.5448C128.768 75.488 128.186 78.4313 126.967 81.078C125.968 83.3733 124.386 85.4489 122.519 87.1072C120.652 88.6887 118.577 89.9077 116.281 90.6984C113.909 91.4891 111.471 91.8516 109.033 91.8516H109.044Z" fill="#3F50EC"></path>
<path d="M194.846 51.459L179.635 31.4384L179.493 31.2188H157.539L172.892 51.448H194.846V51.459Z" fill="#3F50EC"></path>
<path d="M234.228 31.2297H212.846L196.34 53.4687L185.072 67.526L156.298 105.404L155.65 106.26H176.956L195.538 81.3636L206.806 67.1636L233.492 32.1522L234.206 31.2188L234.228 31.2297Z" fill="#3F50EC"></path>
<path d="M219.161 83.3186H197.131L214.494 106.063L214.637 106.282H236.59L219.161 83.3296V83.3186Z" fill="#3F50EC"></path>
<path d="M319.189 108H243.624V92.4113L292.768 30.3208H244.416V12.6183H318.397V28.207L269.517 90.2976H319.189V108ZM364.103 93.7324C372.954 93.7324 379.163 88.9765 381.409 80.3895L397.658 87.5233C391.713 101.791 379.691 109.585 363.839 109.585C340.984 109.585 325.527 93.7324 325.527 70.2172C325.527 46.57 340.323 30.7171 363.31 30.7171C387.486 30.7171 401.886 48.1553 399.64 75.3694H344.551C345.079 85.8059 352.742 93.7324 364.103 93.7324ZM345.211 60.7055H380.616C379.427 51.9864 372.426 46.4379 363.178 46.4379C353.534 46.4379 346.665 52.1185 345.211 60.7055ZM429.773 32.3024V43.3994C434.793 35.4729 442.191 30.7171 450.513 30.7171C457.515 30.7171 463.724 33.8877 466.234 37.983L458.176 53.3075C456.194 50.4011 452.231 48.1553 447.343 48.1553C438.095 48.1553 429.773 55.9496 429.773 78.2758V108H411.542V32.3024H429.773ZM467.698 70.2172C467.698 46.57 482.89 30.7171 505.613 30.7171C528.335 30.7171 543.66 46.57 543.66 70.2172C543.66 93.7324 528.335 109.585 505.613 109.585C482.89 109.585 467.698 93.7324 467.698 70.2172ZM486.325 70.2172C486.325 83.9564 494.251 93.4682 505.613 93.4682C516.974 93.4682 525.032 83.9564 525.032 70.2172C525.032 56.2138 516.974 46.8342 505.613 46.8342C494.251 46.8342 486.325 56.2138 486.325 70.2172Z" fill="#0B2669"></path>
</svg><style>@media (prefers-color-scheme: light) { :root { filter: none; } }
@media (prefers-color-scheme: dark) { :root { filter: none; } }
</style></svg>