<svg width="285" height="41" viewBox="0 0 285 41" fill="none" xmlns="http://www.w3.org/2000/svg">
<path d="M38.0469 0.712891C48.0936 0.712891 56.2377 9.09636 56.2377 19.4382C56.2377 29.7801 48.0936 38.1635 38.0469 38.1635H16.166L37.2755 0.712891H14.8977L0 38.162L37.2755 0.712891H38.0469Z" fill="#F8F6F2"/>
<path d="M100.781 14.6834C96.5732 14.6834 92.5638 18.402 92.5638 23.7949C92.5638 29.1878 96.5732 32.908 100.781 32.908C104.989 32.908 108.998 29.1478 108.998 23.7949C108.998 18.442 104.989 14.6834 100.781 14.6834ZM100.781 31.8451C98.0818 31.8451 96.2166 29.1079 96.2166 23.7949C96.2166 18.4819 98.0832 15.7033 100.781 15.7033C103.479 15.7033 105.347 18.4404 105.347 23.7949C105.347 29.1494 103.48 31.8451 100.781 31.8451ZM226.747 14.6834C222.539 14.6834 218.53 18.402 218.53 23.7949C218.53 29.1878 222.539 32.908 226.747 32.908C230.955 32.908 234.964 29.1478 234.964 23.7949C234.964 18.442 230.955 14.6834 226.747 14.6834ZM226.747 31.8451C224.048 31.8451 222.183 29.1079 222.183 23.7949C222.183 18.4819 224.049 15.7033 226.747 15.7033C229.445 15.7033 231.313 18.4404 231.313 23.7949C231.313 29.1494 229.446 31.8451 226.747 31.8451ZM76.6738 7.73606H70.3232V32.4994H76.4754C84.4942 32.4994 90.6076 27.1879 90.6076 19.7091C90.6076 12.2304 84.812 7.73606 76.6738 7.73606ZM76.356 31.3965H75.9591C74.649 31.3965 73.9745 31.1108 73.9745 29.4765V8.83891H76.3172C82.9871 8.83891 86.6787 12.4761 86.6787 19.9534C86.6787 27.7992 82.5902 31.395 76.3575 31.395L76.356 31.3965ZM216.648 32.4994H213.092L210.881 9.90182L202.941 32.908H202.664L194.843 9.90182L192.727 32.4994H191.346L193.72 7.73606H197.82L203.974 26.2878L210.365 7.73606H213.938L216.647 32.4994H216.648ZM152.991 31.2322C152.317 31.2322 151.681 30.6193 151.681 29.3521V20.729C151.681 16.929 149.458 14.6818 146.044 14.6818C142.869 14.6818 140.328 16.8875 139.295 19.9119L140.089 20.2391C141.042 17.9919 142.59 16.6433 144.455 16.6433C147.114 16.6433 148.187 18.6447 148.187 21.0562V22.4862L144.098 23.9976C141.121 25.1834 139.056 26.4491 139.056 28.9835C139.056 31.5179 141.041 32.9064 143.224 32.9064C145.407 32.9064 147.193 31.4764 148.226 30.0863C148.663 31.8435 150.012 32.9064 151.68 32.9064C153.148 32.9064 154.3 31.9664 155.013 30.8221L154.537 30.2906C153.982 30.945 153.624 31.2307 152.99 31.2307L152.991 31.2322ZM148.188 29.3936C147.314 30.415 146.204 31.0694 145.092 31.0694C143.425 31.0694 142.314 29.9251 142.314 28.1679C142.314 26.2878 143.504 25.3478 145.013 24.7764L148.19 23.5507V29.3936H148.188ZM264.693 30.8651C260.683 30.8651 257.984 27.2278 257.984 22.4478V21.7121H269.02C269.02 18.3206 266.995 14.6834 262.43 14.6834C258.54 14.6834 254.689 18.6063 254.689 23.9592C254.689 29.3122 258.5 32.908 263.065 32.908C265.446 32.908 267.789 31.6822 269.297 29.2707L268.86 28.8207C267.789 30.2108 266.438 30.8651 264.693 30.8651ZM262.39 15.7447C264.613 15.7447 265.645 17.8291 265.764 20.7306H258.102C258.539 17.5035 260.206 15.7447 262.389 15.7447H262.39ZM285.001 15.0919L274.82 40.6724H273.499L277.121 31.5732L270.058 15.0919H273.775L278.758 27.4598L283.68 15.0919H285.001ZM136.202 32.4994H132.707V21.3434C132.707 18.3605 131.596 16.7677 129.332 16.7677C127.665 16.7677 126.394 18.0764 125.76 19.4235C125.8 19.832 125.839 20.2406 125.839 20.6492V32.4994H122.346V21.3434C122.346 18.3605 121.274 16.7677 118.972 16.7677C117.344 16.7677 116.074 17.9535 115.479 19.3006V32.4994H111.986V18.0748C111.986 16.0719 111.51 15.949 109.644 15.949V15.0919H115.479V18.4834C116.234 16.8906 118.099 14.6834 120.839 14.6834C123.578 14.6834 125.126 16.3591 125.642 18.6877C126.397 17.0949 128.341 14.6834 131.2 14.6834C134.733 14.6834 136.202 17.3806 136.202 20.6492V32.4994ZM160.588 9.08467C160.588 10.3104 159.636 11.2504 158.405 11.2504C157.255 11.2504 156.262 10.3104 156.262 9.08467C156.262 7.85894 157.255 6.87744 158.405 6.87744C159.636 6.87744 160.588 7.85741 160.588 9.08467ZM160.27 32.4994H156.779V18.0748C156.779 16.0719 156.301 15.949 154.436 15.949V15.0919H160.27V32.4994ZM179.443 20.6492V32.4994H175.951V21.3434C175.951 18.3605 174.72 16.7677 172.418 16.7677C170.79 16.7677 169.441 17.9535 168.846 19.3006V22.0131H168.844V32.4994H165.354V22.8764V18.0748C165.354 16.0719 164.878 15.949 163.011 15.949V15.0919H168.846V18.4834C169.601 16.8906 171.585 14.6834 174.284 14.6834C177.818 14.6834 179.444 17.3806 179.444 20.6492H179.443ZM252.045 20.6492V32.4994H248.553V21.3434C248.553 18.3605 247.322 16.7677 245.02 16.7677C243.392 16.7677 242.043 17.9535 241.448 19.3006V32.4994H237.955V18.0748C237.955 16.0719 237.477 15.949 235.612 15.949V15.0919H241.446V18.4834C242.201 16.8906 244.186 14.6834 246.885 14.6834C250.419 14.6834 252.045 17.3806 252.045 20.6492Z" fill="#F8F6F2"/>
</svg>
