<svg xmlns="http://www.w3.org/2000/svg" width="46" height="46" viewBox="0 0 46 46" fill="none">
  <path d="M27.8976 21.2773V21.2904" stroke="#00303C" strokeWidth="2" strokeLinecap="round" strokeLinejoin="round"></path>
  <path d="M10.5465 16.6492C9.77204 16.054 9.17726 15.2563 8.82786 14.3442C8.47847 13.4321 8.38807 12.4412 8.56664 11.4809C8.74522 10.5206 9.18582 9.62844 9.83976 8.90293C10.4937 8.17742 11.3355 7.64684 12.2721 7.36983C13.2087 7.09283 14.2037 7.08018 15.1471 7.3333C16.0904 7.58642 16.9454 8.09544 17.6176 8.8041C18.2898 9.51276 18.7529 10.3935 18.9558 11.3489C19.1587 12.3043 19.0935 13.2972 18.7674 14.2179" stroke="#FF6B1A" strokeWidth="2" strokeLinecap="round" strokeLinejoin="round"></path>
  <path d="M29.6633 8.91797V15.6328C31.8485 16.8973 33.5122 18.8983 34.3565 21.2777H36.7242C37.1925 21.2777 37.6416 21.4637 37.9727 21.7948C38.3039 22.1259 38.4899 22.5751 38.4899 23.0433V26.5747C38.4899 27.043 38.3039 27.4921 37.9727 27.8232C37.6416 28.1543 37.1925 28.3403 36.7242 28.3403H34.3547C33.7614 30.0177 32.7532 31.5186 31.4272 32.7069V36.2859C31.4272 36.9883 31.1482 37.662 30.6515 38.1586C30.1548 38.6553 29.4811 38.9344 28.7787 38.9344C28.0763 38.9344 27.4026 38.6553 26.9059 38.1586C26.4092 37.662 26.1302 36.9883 26.1302 36.2859V35.2565C25.5467 35.3542 24.9561 35.4032 24.3645 35.403H17.3018C16.7102 35.4032 16.1197 35.3542 15.5362 35.2565V36.2859C15.5362 36.9883 15.2571 37.662 14.7604 38.1586C14.2638 38.6553 13.5901 38.9344 12.8877 38.9344C12.1852 38.9344 11.5116 38.6553 11.0149 38.1586C10.5182 37.662 10.2392 36.9883 10.2392 36.2859V32.7545V32.7069C8.6394 31.2766 7.51169 29.3942 7.00531 27.309C6.49893 25.2237 6.63775 23.0338 7.40339 21.0291C8.16904 19.0244 9.52542 17.2996 11.293 16.0828C13.0605 14.866 15.156 14.2146 17.3018 14.215H21.716L29.6615 8.91797H29.6633Z" stroke="#00303C" strokeWidth="2" strokeLinecap="round" strokeLinejoin="round"></path>
</svg>
