<svg xmlns="http://www.w3.org/2000/svg" width="41" height="41" viewBox="0 0 41 41" fill="none">
  <path d="M27.5567 35.9727V32.6393C27.5567 30.8712 26.8543 29.1755 25.604 27.9253C24.3538 26.675 22.6581 25.9727 20.89 25.9727H10.89C9.12188 25.9727 7.42619 26.675 6.17595 27.9253C4.92571 29.1755 4.22333 30.8712 4.22333 32.6393V35.9727M27.5567 6.18599C28.9863 6.55661 30.2523 7.39143 31.1561 8.55943C32.0599 9.72742 32.5503 11.1625 32.5503 12.6393C32.5503 14.1162 32.0599 15.5512 31.1561 16.7192C30.2523 17.8872 28.9863 18.722 27.5567 19.0927M37.5567 35.9727V32.6393C37.5556 31.1622 37.0639 29.7273 36.1589 28.5598C35.254 27.3924 33.9869 26.5586 32.5567 26.1893M22.5567 12.6393C22.5567 16.3212 19.5719 19.306 15.89 19.306C12.2081 19.306 9.22333 16.3212 9.22333 12.6393C9.22333 8.95742 12.2081 5.97266 15.89 5.97266C19.5719 5.97266 22.5567 8.95742 22.5567 12.6393Z" stroke="#00303C" stroke-width="2" stroke-linecap="round" stroke-linejoin="round"/>
  <path d="M27.5554 6.18555C28.985 6.55616 30.251 7.39099 31.1548 8.55898C32.0586 9.72698 32.549 11.162 32.549 12.6389C32.549 14.1157 32.0586 15.5508 31.1548 16.7188C30.251 17.8868 28.985 18.7216 27.5554 19.0922M37.5554 35.9722V32.6389C37.5543 31.1618 37.0626 29.7268 36.1576 28.5594C35.2527 27.392 33.9856 26.5582 32.5554 26.1889" stroke="#3F50EC" stroke-width="2" stroke-linecap="round" stroke-linejoin="round"/>
</svg>
