<svg xmlns="http://www.w3.org/2000/svg" width="46" height="46" viewBox="0 0 46 46" fill="none">
  <path d="M28.1233 21.543V21.556" stroke="#00303C" stroke-width="2" stroke-linecap="round" stroke-linejoin="round"/>
  <path d="M10.7723 16.9149C9.99787 16.3197 9.40309 15.5219 9.05369 14.6098C8.7043 13.6977 8.6139 12.7068 8.79247 11.7465C8.97105 10.7863 9.41165 9.89406 10.0656 9.16855C10.7195 8.44304 11.5613 7.91246 12.4979 7.63546C13.4346 7.35845 14.4295 7.34581 15.3729 7.59893C16.3163 7.85204 17.1713 8.36106 17.8434 9.06972C18.5156 9.77838 18.9787 10.6591 19.1816 11.6145C19.3846 12.5699 19.3194 13.5628 18.9933 14.4835" stroke="#3F50EC" stroke-width="2" stroke-linecap="round" stroke-linejoin="round"/>
  <path d="M29.889 9.18359V15.8984C32.0742 17.1629 33.7379 19.164 34.5822 21.5433H36.9499C37.4182 21.5433 37.8673 21.7293 38.1985 22.0604C38.5296 22.3916 38.7156 22.8407 38.7156 23.309V26.8403C38.7156 27.3086 38.5296 27.7577 38.1985 28.0888C37.8673 28.4199 37.4182 28.606 36.9499 28.606H34.5804C33.9871 30.2834 32.9789 31.7842 31.6529 32.9725V36.5515C31.6529 37.2539 31.3739 37.9276 30.8772 38.4243C30.3805 38.921 29.7068 39.2 29.0044 39.2C28.302 39.2 27.6283 38.921 27.1316 38.4243C26.635 37.9276 26.3559 37.2539 26.3559 36.5515V35.5221C25.7724 35.6198 25.1818 35.6689 24.5902 35.6687H17.5276C16.936 35.6689 16.3454 35.6198 15.7619 35.5221V36.5515C15.7619 37.2539 15.4828 37.9276 14.9862 38.4243C14.4895 38.921 13.8158 39.2 13.1134 39.2C12.411 39.2 11.7373 38.921 11.2406 38.4243C10.7439 37.9276 10.4649 37.2539 10.4649 36.5515V33.0202V32.9725C8.86511 31.5422 7.7374 29.6599 7.23102 27.5746C6.72463 25.4893 6.86345 23.2994 7.6291 21.2947C8.39475 19.2901 9.75112 17.5652 11.5187 16.3484C13.2863 15.1316 15.3817 14.4803 17.5276 14.4806H21.9417L29.8873 9.18359H29.889Z" stroke="#00303C" stroke-width="2" stroke-linecap="round" stroke-linejoin="round"/>
</svg>
