<svg xmlns="http://www.w3.org/2000/svg" width="46" height="46" viewBox="0 0 46 46" fill="none">
  <path d="M22.9551 25.0951V4.46094L37.9617 11.9643L22.9551 19.4676M39.0141 19.884C40.0123 22.9607 40.1057 26.2593 39.2832 29.3875C38.4606 32.5157 36.7568 35.3417 34.3743 37.5294C31.9919 39.7171 29.0311 41.1744 25.8443 41.7278C22.6575 42.2812 19.3788 41.9075 16.3982 40.6512C13.4176 39.3949 10.8607 37.3087 9.03167 34.641C7.2026 31.9733 6.17838 28.8364 6.08084 25.6033C5.98331 22.3703 6.81658 19.1773 8.48152 16.4042C10.1465 13.6311 12.573 11.3946 15.4724 9.96088M15.4555 19.462C14.5155 20.7132 13.9036 22.1797 13.6754 23.728C13.4472 25.2762 13.6101 26.8569 14.1492 28.3261C14.6882 29.7953 15.5863 31.1063 16.7617 32.1396C17.937 33.1728 19.3522 33.8956 20.8784 34.242C22.4045 34.5884 23.9931 34.5474 25.4993 34.1227C27.0056 33.6981 28.3816 32.9033 29.5021 31.8107C30.6226 30.7182 31.4519 29.3627 31.9145 27.8676C32.377 26.3726 32.4581 24.7856 32.1504 23.2512" stroke="#00303C" stroke-width="2" stroke-linecap="round" stroke-linejoin="round"/>
  <path d="M22.9548 25.0951V4.46094L37.9614 11.9643L22.9548 19.4676" stroke="#3F50EC" stroke-width="2" stroke-linecap="round" stroke-linejoin="round"/>
</svg>
