<svg xmlns="http://www.w3.org/2000/svg" width="46" height="46" viewBox="0 0 46 46" fill="none">
  <path d="M22.8465 30.7218V40.1009M30.3499 26.9701V40.1009M37.8532 19.4668V40.1009M41.6049 6.33594L25.3864 22.5544C25.2993 22.6417 25.1958 22.711 25.0818 22.7583C24.9679 22.8056 24.8457 22.8299 24.7224 22.8299C24.599 22.8299 24.4768 22.8056 24.3629 22.7583C24.2489 22.711 24.1454 22.6417 24.0583 22.5544L17.8831 16.3791C17.7072 16.2033 17.4687 16.1045 17.22 16.1045C16.9713 16.1045 16.7327 16.2033 16.5569 16.3791L4.0882 28.8459M7.83986 34.4734V40.1009M15.3432 26.9701V40.1009" stroke="#00303C" stroke-width="2" stroke-linecap="round" stroke-linejoin="round"/>
  <path d="M41.6054 6.33594L25.3869 22.5544C25.2998 22.6417 25.1963 22.711 25.0824 22.7583C24.9684 22.8056 24.8462 22.8299 24.7229 22.8299C24.5995 22.8299 24.4774 22.8056 24.3634 22.7583C24.2495 22.711 24.146 22.6417 24.0588 22.5544L17.8836 16.3791C17.7077 16.2033 17.4692 16.1045 17.2205 16.1045C16.9718 16.1045 16.7333 16.2033 16.5574 16.3791L4.08871 28.8459" stroke="#3F50EC" stroke-width="2" stroke-linecap="round" stroke-linejoin="round"/>
</svg>
