<svg xmlns="http://www.w3.org/2000/svg" width="46" height="46" viewBox="0 0 46 46" fill="none">
  <path d="M19.135 37.998L19.1237 28.6149C19.1225 27.5785 19.9616 26.7373 20.9981 26.736L24.7513 26.7315" stroke="#00303C" strokeWidth="2" strokeLinecap="round" strokeLinejoin="round"></path>
  <path d="M5.97766 20.3377L20.4097 7.93706C21.8138 6.73058 23.8879 6.7281 25.2949 7.9312L39.7567 20.2972" stroke="#00303C" strokeWidth="2" strokeLinecap="round" strokeLinejoin="round"></path>
  <path d="M22.8884 37.9942L5.99887 38.0145" stroke="#00303C" strokeWidth="2" strokeLinecap="round" strokeLinejoin="round"></path>
  <path d="M29.6567 11.6609L29.6517 7.49144C29.6508 6.71413 30.2802 6.08323 31.0575 6.0823L35.9196 6.07647C36.6969 6.07554 37.3278 6.70492 37.3288 7.48224L37.3417 18.2322" stroke="#00303C" strokeWidth="2" strokeLinecap="round" strokeLinejoin="round"></path>
  <path d="M8.3874 18.2665L8.41107 38.0115" stroke="#00303C" strokeWidth="2" strokeLinecap="round" strokeLinejoin="round"></path>
  <path fillRule="evenodd" clipRule="evenodd" d="M35.0884 39.855C35.0841 36.2275 32.1399 33.2904 28.5124 33.2947C32.1399 33.2904 35.077 30.3462 35.0727 26.7187C35.077 30.3462 38.0212 33.2833 41.6487 33.279C38.0212 33.2833 35.0841 36.2275 35.0884 39.855Z" stroke="#3F50EC" strokeWidth="2" strokeLinecap="round" strokeLinejoin="round"></path>
</svg>
