<svg xmlns="http://www.w3.org/2000/svg" width="46" height="46" viewBox="0 0 46 46" fill="none">
  <path d="M19.4249 4.19531V32.3328M13.7974 41.712C11.8074 41.712 9.89893 40.9214 8.49178 39.5143C7.08464 38.1072 6.29411 36.1987 6.29411 34.2086C6.29411 33.7111 6.49174 33.234 6.84353 32.8822C7.19531 32.5304 7.67244 32.3328 8.16994 32.3328H38.1833C38.6808 32.3328 39.1579 32.5304 39.5097 32.8822C39.8615 33.234 40.0591 33.7111 40.0591 34.2086C40.0591 36.1987 39.2686 38.1072 37.8614 39.5143C36.4543 40.9214 34.5458 41.712 32.5558 41.712H13.7974ZM17.8474 5.0582C17.9956 4.82751 18.1925 4.63212 18.4244 4.48579C18.6563 4.33945 18.9174 4.24572 19.1894 4.21121C19.4614 4.17669 19.7377 4.20223 19.9988 4.28601C20.2599 4.3698 20.4994 4.5098 20.7005 4.69616L39.4157 21.5411C39.703 21.7922 39.907 22.125 40.0003 22.495C40.0936 22.865 40.0718 23.2547 39.9379 23.612C39.804 23.9693 39.5643 24.2773 39.2508 24.4948C38.9373 24.7123 38.5649 24.8291 38.1833 24.8295H8.16994C7.82801 24.8296 7.49255 24.7362 7.19983 24.5595C6.90712 24.3827 6.66828 24.1293 6.50913 23.8267C6.34999 23.5241 6.27659 23.1837 6.29689 22.8423C6.31718 22.501 6.43038 22.1717 6.62426 21.89L17.8474 5.0582Z" stroke="#00303C" strokeWidth="2" strokeLinecap="round" strokeLinejoin="round"></path>
  <path d="M17.8474 5.05722C17.9956 4.82654 18.1926 4.63115 18.4244 4.48481C18.6563 4.33848 18.9175 4.24475 19.1895 4.21023C19.4615 4.17572 19.7377 4.20125 19.9988 4.28504C20.2599 4.36883 20.4994 4.50883 20.7005 4.69519L39.4157 21.5402C39.7031 21.7913 39.907 22.124 40.0003 22.494C40.0936 22.864 40.0718 23.2537 39.9379 23.611C39.804 23.9683 39.5643 24.2763 39.2508 24.4938C38.9373 24.7114 38.5649 24.8281 38.1833 24.8285H8.16997C7.82804 24.8286 7.49258 24.7352 7.19986 24.5585C6.90715 24.3818 6.66831 24.1284 6.50916 23.8257C6.35002 23.5231 6.27663 23.1827 6.29692 22.8414C6.31721 22.5 6.43041 22.1707 6.62429 21.8891L17.8474 5.05722Z" stroke="#FF6B1A" strokeWidth="2" strokeLinecap="round" strokeLinejoin="round"></path>
</svg>
