<svg xmlns="http://www.w3.org/2000/svg" width="41" height="41" viewBox="0 0 41 41" fill="none">
  <path d="M15.6736 20.9781L19.0078 24.3123L25.6761 17.644M34.0115 22.6452C34.0115 30.9806 28.1767 35.1483 21.2417 37.5655C20.8785 37.6886 20.4841 37.6827 20.1247 37.5488C13.173 35.1482 7.33828 30.9806 7.33828 22.6452V10.9757C7.33828 10.5335 7.51392 10.1095 7.82655 9.79689C8.13919 9.48425 8.56322 9.30861 9.00535 9.30861C12.3395 9.30861 16.5072 7.30812 19.4079 4.77417C19.7611 4.47243 20.2103 4.30664 20.6749 4.30664C21.1394 4.30664 21.5887 4.47243 21.9418 4.77417C24.8592 7.32479 29.0102 9.30861 32.3444 9.30861C32.7865 9.30861 33.2105 9.48425 33.5232 9.79689C33.8358 10.1095 34.0115 10.5335 34.0115 10.9757V22.6452Z" stroke="#00303C" stroke-width="2" stroke-linecap="round" stroke-linejoin="round"/>
  <path d="M15.6733 20.9787L19.0075 24.3128L25.6758 17.6445" stroke="#FF6B1A" stroke-width="2" stroke-linecap="round" stroke-linejoin="round"/>
</svg>
