<svg xmlns="http://www.w3.org/2000/svg" width="46" height="46" viewBox="0 0 46 46" fill="none">
  <path d="M17.2158 26.7045L28.4708 15.4495M19.0917 16.3874C19.0917 16.9054 18.6717 17.3253 18.1538 17.3253C17.6358 17.3253 17.2158 16.9054 17.2158 16.3874C17.2158 15.8694 17.6358 15.4495 18.1538 15.4495C18.6717 15.4495 19.0917 15.8694 19.0917 16.3874ZM28.4708 25.7666C28.4708 26.2846 28.0509 26.7045 27.5329 26.7045C27.0149 26.7045 26.595 26.2846 26.595 25.7666C26.595 25.2486 27.0149 24.8286 27.5329 24.8286C28.0509 24.8286 28.4708 25.2486 28.4708 25.7666ZM9.7125 39.8353V9.82198C9.7125 8.82698 10.1078 7.87272 10.8113 7.16915C11.5149 6.46558 12.4692 6.07031 13.4642 6.07031H32.2225C33.2175 6.07031 34.1718 6.46558 34.8753 7.16915C35.5789 7.87272 35.9742 8.82698 35.9742 9.82198V39.8353L30.3467 36.0836L26.595 39.8353L22.8433 36.0836L19.0917 39.8353L15.34 36.0836L9.7125 39.8353Z" stroke="#00303C" strokeWidth="2" strokeLinecap="round" strokeLinejoin="round"></path>
  <path d="M17.2158 26.7042L28.4708 15.4492M19.0917 16.3871C19.0917 16.9051 18.6718 17.3251 18.1538 17.3251C17.6358 17.3251 17.2158 16.9051 17.2158 16.3871C17.2158 15.8691 17.6358 15.4492 18.1538 15.4492C18.6718 15.4492 19.0917 15.8691 19.0917 16.3871ZM28.4708 25.7663C28.4708 26.2843 28.0509 26.7042 27.5329 26.7042C27.0149 26.7042 26.595 26.2843 26.595 25.7663C26.595 25.2483 27.0149 24.8284 27.5329 24.8284C28.0509 24.8284 28.4708 25.2483 28.4708 25.7663Z" stroke="#3F50EC" strokeWidth="2" strokeLinecap="round" strokeLinejoin="round"></path>
</svg>
